<svg xmlns="http://www.w3.org/2000/svg" viewBox="0 0 24 24" fill="none" stroke="currentColor" stroke-width="2" stroke-linecap="round" stroke-linejoin="round">
  <path d="M12 2c-4.4 0-8 3.6-8 8 0 1.8.6 3.4 1.6 4.7.4.5.6 1.1.5 1.7-.1.8-.4 1.6-.4 2.4 0 1.7 1.3 3.1 3 3.2h6.6c1.7-.1 3-1.5 3-3.2 0-.8-.3-1.6-.4-2.4-.1-.6.1-1.2.5-1.7C19.4 13.4 20 11.8 20 10c0-4.4-3.6-8-8-8z"/>
  <path d="M12 2v20"/>
  <path d="M8.5 6.5a4.5 4.5 0 0 0 0 9"/>
  <path d="M15.5 6.5a4.5 4.5 0 0 1 0 9"/>
  <path d="M12 11h.01"/>
  <circle cx="12" cy="11" r="1" fill="currentColor"/>
  <circle cx="8" cy="10" r="1" fill="currentColor"/>
  <circle cx="16" cy="10" r="1" fill="currentColor"/>
</svg>